<svg width="30" height="30" viewBox="0 0 30 30" fill="none" xmlns="http://www.w3.org/2000/svg">
<g id="user">
<g id="Vector">
<mask id="path-1-outside-1_1996_61" maskUnits="userSpaceOnUse" x="4" y="17.75" width="22" height="10" fill="black">
<rect fill="white" x="4" y="17.75" width="22" height="10"/>
<path d="M25 26.25V23.75C25 22.4239 24.4732 21.1521 23.5355 20.2145C22.5979 19.2768 21.3261 18.75 20 18.75H10C8.67392 18.75 7.40215 19.2768 6.46447 20.2145C5.52678 21.1521 5 22.4239 5 23.75V26.25"/>
</mask>
<path d="M24 26.25C24 26.8023 24.4477 27.25 25 27.25C25.5523 27.25 26 26.8023 26 26.25H24ZM20 18.75V17.75V18.75ZM10 18.75V17.75V18.75ZM5 23.75H4H5ZM4 26.25C4 26.8023 4.44772 27.25 5 27.25C5.55228 27.25 6 26.8023 6 26.25H4ZM26 26.25V23.75H24V26.25H26ZM26 23.75C26 22.1587 25.3679 20.6326 24.2426 19.5074L22.8284 20.9216C23.5786 21.6717 24 22.6891 24 23.75H26ZM24.2426 19.5074C23.1174 18.3821 21.5913 17.75 20 17.75V19.75C21.0609 19.75 22.0783 20.1714 22.8284 20.9216L24.2426 19.5074ZM20 17.75H10V19.75H20V17.75ZM10 17.75C8.4087 17.75 6.88258 18.3821 5.75736 19.5074L7.17157 20.9216C7.92172 20.1714 8.93913 19.75 10 19.75V17.75ZM5.75736 19.5074C4.63214 20.6326 4 22.1587 4 23.75H6C6 22.6891 6.42143 21.6717 7.17157 20.9216L5.75736 19.5074ZM4 23.75V26.25H6V23.75H4Z" fill="#010D09" mask="url(#path-1-outside-1_1996_61)"/>
</g>
<path id="Vector_2" d="M15 14.25C18.0376 14.25 20.5 11.7876 20.5 8.75C20.5 5.71243 18.0376 3.25 15 3.25C11.9624 3.25 9.5 5.71243 9.5 8.75C9.5 11.7876 11.9624 14.25 15 14.25Z" stroke="#010D09" stroke-linecap="round" stroke-linejoin="round"/>
</g>
</svg>
